<?xml version="1.0" encoding="UTF-8"?>
<svg width="198px" height="41px" viewBox="0 0 198 41" version="1.1" xmlns="http://www.w3.org/2000/svg" xmlns:xlink="http://www.w3.org/1999/xlink">
    <!-- Generator: Sketch 62 (91390) - https://sketch.com -->
    <title>bonsai_logo_linear_00b289</title>
    <desc>Created with Sketch.</desc>
    <g id="Symbols" stroke="none" stroke-width="1" fill="none" fill-rule="evenodd">
        <g id="logo" fill="#00B289" fill-rule="nonzero">
            <g id="bonsai_logo_linear_00b289">
                <path d="M30.34,6.42 L16.98,6.42 L16.98,11.42 L16.98,14.47 L16.98,17.04 L16.98,19.28 L16.98,24.33 L24.27,24.33 L24.27,17.05 L18.76,17.05 L18.76,11.43 L26.94,11.43 C27.76,11.43 28.5,11.76 29.03,12.3 C29.57,12.83 29.9,13.58 29.9,14.39 L29.9,27.14 L29.9,29.95 L27.09,29.95 L14.31,29.95 C13.49,29.95 12.75,29.62 12.22,29.08 C11.68,28.54 11.35,27.8 11.35,26.99 L11.35,14.48 L11.35,14.24 L11.35,11.43 L11.35,4 L11.35,0.8 L30.34,0.8 C33.15,0.8 35.69,1.94 37.54,3.79 C39.38,5.63 40.53,8.18 40.53,10.98 L40.53,32.09 L40.53,36.07 L40.53,37.83 C40.53,39.34 39.3,40.57 37.79,40.57 L37.32,40.57 L35.88,40.57 L10.9,40.57 C8.09,40.57 5.55,39.43 3.7,37.58 C1.85,35.74 0.71,33.19 0.71,30.39 L0.71,11.42 L3.65,11.42 L6.33,11.42 L9.56,11.42 L9.56,17.04 L6.33,17.04 L6.33,30.39 C6.33,31.64 6.84,32.78 7.67,33.61 C8.5,34.44 9.64,34.95 10.89,34.95 L34.89,34.95 L34.89,10.98 C34.89,9.73 34.38,8.59 33.55,7.76 C32.73,6.94 31.6,6.42 30.34,6.42 L30.34,6.42 Z" id="Path"></path>
                <path d="M180.06,14.39 C177.48,12.6 174.27,11.96 171.04,12.65 C166.62,13.6 163.1,17.23 162.28,21.7 C161.65,25.11 162.55,28.58 164.74,31.21 C166.93,33.84 170.15,35.35 173.56,35.35 C175.83,35.35 178.03,34.68 179.88,33.45 C180.17,34.29 180.96,34.9 181.9,34.9 L185.14,34.9 L185.14,12.82 L182.59,12.82 C181.48,12.81 180.52,13.46 180.06,14.39 Z M168.28,26.93 C167.67,25.96 167.39,24.92 167.43,23.75 C167.48,22.1 168.23,20.49 169.48,19.35 C170.66,18.28 172.04,17.76 173.69,17.76 C174.83,17.76 175.84,18.03 176.79,18.58 C178.8,19.76 179.78,21.53 179.78,23.97 C179.78,25.58 179.19,26.95 177.98,28.17 C176.65,29.5 175.11,30.09 173.25,29.95 C172.47,29.89 171.69,29.68 170.98,29.33 C169.82,28.77 168.93,27.98 168.28,26.93 L168.28,26.93 Z" id="Shape"></path>
                <path d="M75.38,13.86 C73.57,12.88 71.61,12.39 69.54,12.39 C67.79,12.39 66.16,12.77 64.67,13.53 C64.33,13.7 64.01,13.89 63.7,14.09 L63.7,8.21 C63.7,7.03 62.74,6.08 61.57,6.08 L58.26,6.08 L58.26,34.9 L61.47,34.9 C62.39,34.9 63.17,34.32 63.47,33.5 C63.91,33.79 64.38,34.05 64.89,34.28 C66.45,35 68.11,35.36 69.81,35.36 C73.24,35.36 76.25,33.93 78.75,31.12 C80.51,29.15 81.4,26.68 81.4,23.77 C81.4,21.68 80.85,19.73 79.76,17.97 C78.67,16.22 77.2,14.84 75.38,13.86 Z M75.21,26.74 C74.64,27.78 73.88,28.56 72.89,29.15 C71.95,29.7 70.95,29.97 69.85,29.97 C68.7,29.97 67.65,29.71 66.68,29.2 C64.58,28.04 63.6,26.39 63.6,24 C63.6,22.19 64.16,20.73 65.32,19.52 C66.46,18.33 67.88,17.75 69.67,17.75 C71.46,17.75 72.92,18.32 74.15,19.48 C75.36,20.62 75.94,22.04 75.95,23.81 C75.95,24.85 75.69,25.86 75.21,26.74 Z" id="Shape"></path>
                <path d="M98.59,12.39 C96.51,12.39 94.56,12.92 92.79,13.96 C91.02,15 89.61,16.42 88.6,18.19 C87.59,19.96 87.08,21.91 87.08,23.98 C87.08,26.02 87.62,27.94 88.67,29.69 C89.87,31.68 91.55,33.21 93.66,34.24 C94.86,34.83 96.14,35.19 97.47,35.31 C97.85,35.34 98.22,35.36 98.59,35.36 C100.65,35.36 102.59,34.83 104.34,33.77 C106.32,32.58 107.84,30.89 108.88,28.76 C109.5,27.48 109.87,26.11 109.97,24.68 C110.22,21.23 109.1,18.24 106.62,15.77 C104.36,13.52 101.66,12.39 98.59,12.39 Z M104.55,23.73 C104.55,24.86 104.29,25.89 103.77,26.87 C102.63,28.99 100.98,29.97 98.59,29.97 C97.07,29.97 95.63,29.43 94.54,28.44 C93.14,27.17 92.48,25.65 92.52,23.78 C92.54,22.96 92.72,22.13 93.05,21.4 C93.6,20.15 94.41,19.23 95.53,18.58 C96.48,18.03 97.48,17.76 98.59,17.76 C100.17,17.76 101.54,18.33 102.77,19.49 C103.97,20.63 104.55,22.02 104.55,23.73 Z" id="Shape"></path>
                <path d="M126.28,12.39 C124.46,12.39 122.85,12.88 121.45,13.85 C121.08,13.23 120.4,12.81 119.62,12.81 L116.41,12.81 L116.41,34.89 L121.86,34.89 L121.86,23.34 C121.86,22.38 121.91,21.52 122.01,20.81 C122.16,19.97 122.63,19.28 123.49,18.67 C124.33,18.05 125.2,17.76 126.17,17.76 C127.86,17.76 129.07,18.35 129.98,19.61 C130.55,20.41 130.84,21.66 130.84,23.33 L130.84,32.75 C130.84,33.93 131.8,34.88 132.97,34.88 L136.28,34.88 L136.28,23.33 C136.28,20.25 135.58,17.82 134.2,16.1 C132.2,13.64 129.53,12.39 126.28,12.39 L126.28,12.39 Z" id="Path"></path>
                <path d="M192.27,14.94 L192.27,34.89 L195.58,34.89 C196.76,34.89 197.71,33.93 197.71,32.76 L197.71,12.81 L194.4,12.81 C193.23,12.81 192.27,13.76 192.27,14.94 Z" id="Path"></path>
                <path d="M195.64,6.25 L192.96,6.25 C192.58,6.25 192.27,5.94 192.27,5.56 L192.27,2.88 C192.27,1.73 193.2,0.8 194.35,0.8 L197.72,0.8 L197.72,4.17 C197.71,5.32 196.79,6.25 195.64,6.25 L195.64,6.25 Z" id="Path"></path>
                <path d="M155.37,23.46 C154,22.62 152.45,21.94 150.72,21.43 C150.57,21.38 150.39,21.33 150.2,21.27 C150.01,21.22 149.81,21.17 149.6,21.12 C149.16,20.96 148.75,20.75 148.36,20.48 C147.97,20.21 147.79,19.83 147.82,19.34 L147.82,19.3 C147.82,18.71 148.01,18.26 148.4,17.96 C148.79,17.66 149.26,17.51 149.83,17.51 C150.32,17.51 150.75,17.64 151.13,17.9 C151.23,17.97 151.31,18.04 151.39,18.13 C151.69,18.48 152.17,18.62 152.59,18.43 L156.39,16.7 C156.04,15.85 155.49,15.08 154.72,14.4 C153.3,13.12 151.7,12.48 149.92,12.48 C148.03,12.48 146.36,13.09 144.89,14.3 C143.42,15.51 142.68,17.11 142.68,19.1 C142.68,20 142.85,20.83 143.2,21.58 C143.55,22.33 144.07,23 144.77,23.59 C145,23.8 145.23,23.97 145.45,24.11 C145.67,24.25 145.88,24.37 146.09,24.48 C146.35,24.61 146.61,24.73 146.86,24.83 C147.12,24.93 147.39,25.04 147.67,25.14 L148.13,25.3 C148.29,25.35 148.45,25.4 148.63,25.45 C148.84,25.53 149.05,25.6 149.27,25.66 C149.49,25.72 149.72,25.81 149.95,25.91 C150.54,26.12 151.08,26.39 151.56,26.74 C152.04,27.09 152.28,27.59 152.28,28.23 C152.28,28.9 152.03,29.41 151.54,29.76 C151.05,30.11 150.49,30.28 149.87,30.28 C149.12,30.28 148.52,30.05 148.05,29.58 C148,29.53 147.94,29.47 147.9,29.41 C147.37,28.8 146.28,28.44 145.49,28.61 L142.07,29.36 C142.38,30.88 143.09,32.17 144.2,33.21 C145.66,34.58 147.49,35.26 149.68,35.26 C149.89,35.26 150.09,35.25 150.3,35.22 L150.92,35.14 C151.72,34.98 152.5,34.73 153.26,34.37 C154.02,34.01 154.69,33.57 155.25,33.05 C155.97,32.35 156.51,31.57 156.88,30.71 C157.24,29.85 157.420107,28.91 157.420107,27.9 C157.43,25.78 156.74,24.29 155.37,23.46 L155.37,23.46 Z" id="Path"></path>
            </g>
        </g>
    </g>
</svg>