<?xml version="1.0" encoding="UTF-8"?>
<svg width="130px" height="48px" viewBox="0 0 130 48" version="1.1" xmlns="http://www.w3.org/2000/svg" xmlns:xlink="http://www.w3.org/1999/xlink">
    <!-- Generator: Sketch 52.6 (67491) - http://www.bohemiancoding.com/sketch -->
    <title>Group 11</title>
    <desc>Created with Sketch.</desc>
    <g id="Page-1" stroke="none" stroke-width="1" fill="none" fill-rule="evenodd">
        <g id="v1_A" transform="translate(-1239.000000, -201.000000)">
            <g id="Group-11" transform="translate(1239.000000, 201.000000)">
                <path d="M0.7,10 L0.7,8.712 C4.326,5.968 5.74,4.75 5.74,3.406 C5.74,2.426 4.9,1.978 4.046,1.978 C2.954,1.978 2.114,2.426 1.526,3.098 L0.574,2.02 C1.4,1.026 2.716,0.522 4.018,0.522 C5.824,0.522 7.406,1.544 7.406,3.406 C7.406,5.128 5.824,6.668 3.318,8.558 L7.462,8.558 L7.462,10 L0.7,10 Z M20.986,10 L20.986,2.93 L18.116,10 L17.416,10 L14.56,2.93 L14.56,10 L12.922,10 L12.922,0.662 L15.232,0.662 L17.766,6.948 L20.314,0.662 L22.624,0.662 L22.624,10 L20.986,10 Z M24.192,5.338 C24.192,2.552 26.166,0.508 28.966,0.508 C31.766,0.508 33.74,2.552 33.74,5.338 C33.74,8.124 31.766,10.168 28.966,10.168 C26.166,10.168 24.192,8.124 24.192,5.338 Z M32.06,5.338 C32.06,3.406 30.842,1.964 28.966,1.964 C27.076,1.964 25.872,3.406 25.872,5.338 C25.872,7.256 27.076,8.712 28.966,8.712 C30.842,8.712 32.06,7.256 32.06,5.338 Z M41.832,10 L36.96,3.196 L36.96,10 L35.322,10 L35.322,0.662 L37.002,0.662 L41.776,7.284 L41.776,0.662 L43.414,0.662 L43.414,10 L41.832,10 Z M47.628,10 L47.628,2.104 L44.8,2.104 L44.8,0.662 L52.094,0.662 L52.094,2.104 L49.266,2.104 L49.266,10 L47.628,10 Z M59.976,10 L59.976,5.926 L55.118,5.926 L55.118,10 L53.48,10 L53.48,0.662 L55.118,0.662 L55.118,4.484 L59.976,4.484 L59.976,0.662 L61.614,0.662 L61.614,10 L59.976,10 Z M63,8.684 L63.91,7.424 C64.554,8.11 65.562,8.712 66.864,8.712 C68.208,8.712 68.74,8.054 68.74,7.438 C68.74,6.598 67.746,6.346 66.612,6.052 C65.086,5.674 63.294,5.226 63.294,3.252 C63.294,1.712 64.652,0.522 66.696,0.522 C68.152,0.522 69.328,0.984 70.196,1.824 L69.258,3.042 C68.53,2.314 67.536,1.978 66.556,1.978 C65.59,1.978 64.974,2.44 64.974,3.14 C64.974,3.868 65.926,4.106 67.032,4.386 C68.572,4.778 70.406,5.254 70.406,7.284 C70.406,8.838 69.314,10.168 66.794,10.168 C65.072,10.168 63.826,9.566 63,8.684 Z M75.516,10 L75.516,0.662 L81.914,0.662 L81.914,2.104 L77.154,2.104 L77.154,4.526 L81.816,4.526 L81.816,5.968 L77.154,5.968 L77.154,10 L75.516,10 Z M88.718,10 L86.646,6.514 L85.022,6.514 L85.022,10 L83.384,10 L83.384,0.662 L87.486,0.662 C89.334,0.662 90.538,1.866 90.538,3.588 C90.538,5.254 89.446,6.15 88.326,6.332 L90.608,10 L88.718,10 Z M88.858,3.588 C88.858,2.692 88.186,2.104 87.262,2.104 L85.022,2.104 L85.022,5.072 L87.262,5.072 C88.186,5.072 88.858,4.484 88.858,3.588 Z M92.176,10 L92.176,0.662 L98.574,0.662 L98.574,2.104 L93.814,2.104 L93.814,4.526 L98.476,4.526 L98.476,5.968 L93.814,5.968 L93.814,8.558 L98.574,8.558 L98.574,10 L92.176,10 Z M100.254,10 L100.254,0.662 L106.652,0.662 L106.652,2.104 L101.892,2.104 L101.892,4.526 L106.554,4.526 L106.554,5.968 L101.892,5.968 L101.892,8.558 L106.652,8.558 L106.652,10 L100.254,10 Z M108.416,7.144 L108.15,0.662 L109.942,0.662 L109.69,7.144 L108.416,7.144 Z M108.08,9.174 C108.08,8.642 108.514,8.194 109.046,8.194 C109.578,8.194 110.026,8.642 110.026,9.174 C110.026,9.692 109.578,10.14 109.046,10.14 C108.514,10.14 108.08,9.692 108.08,9.174 Z" id="2-months-free!" fill="#01B289"></path>
                <g id="Group-10" transform="translate(116.239340, 5.500000)" stroke="#01B289" stroke-linecap="round">
                    <path d="M2.76065965,41 C9.69999903,35.0184431 13.1696687,28.5622199 13.1696687,21.6313304 C13.1696687,11.2349961 9.9612718,5.84820074 2.76065965,0" id="Path-33" stroke-dasharray="5"></path>
                    <polyline id="Path-34" stroke-linejoin="round" transform="translate(3.667104, 40.132565) rotate(43.000000) translate(-3.667104, -40.132565) " points="1 38.7898586 3.66533404 41.4752713 6.33420864 38.8315177"></polyline>
                </g>
            </g>
        </g>
    </g>
</svg>